<svg width="1430" height="1430" viewBox="0 0 1430 1430" fill="none" xmlns="http://www.w3.org/2000/svg">
<path d="M702.274 550.663C706.001 577.159 702.775 734.341 702.274 742.935C701.774 751.528 701.341 768.26 692.954 770.504C677.373 774.674 667.879 752.26 652.09 736.49C629.507 713.933 591.553 700.402 576.097 695.314C544.552 684.931 445.976 647.093 435.223 640.891C427.462 636.416 421.436 631.582 412.998 618.692C406.905 609.383 401.327 581.813 398.66 559.615C395.993 537.416 394 496.535 394 490.154C394 486.627 394.717 480.486 399.377 471.177C403.105 463.73 407.621 459.003 414.074 454.349C426.672 444.841 441.891 433.582 446.335 430.718C450.778 427.853 455.655 425.588 463.182 426.063C521.85 429.763 641.838 443.106 663.919 464.016C686 484.926 698.548 524.168 702.274 550.663Z" fill="#FDB002"/>
<path d="M484.469 745.02C486.764 786.84 491.997 807.678 500.959 821.284C509.92 834.889 511.856 854.081 503.826 876.423C493.789 904.351 485.353 912.586 479.093 912.586C472.64 912.586 469.414 900.412 466.547 888.597C463.751 877.077 437.87 761.848 435.002 750.748C432.135 739.649 422.456 698.474 423.89 674.842C425.037 655.938 453.04 666.249 457.585 671.978C468.936 682.958 482.175 703.2 484.469 745.02Z" fill="#FDB002"/>
<path d="M522.108 880.003L507.052 917.956C502.082 930.127 495.178 956.904 498.808 968.082C503.109 981.33 535.126 1005.26 573.726 1027.52C609.213 1047.98 656.171 1056.76 678.395 1059.74C697.394 1062.29 704.563 1046.14 704.563 1000.66C704.563 900.412 705.997 855.188 700.261 848.137C690.941 836.679 673.019 839.186 646.851 862.459C620.684 885.732 589.363 881.477 573.726 877.139C560.821 873.558 551.143 866.039 540.389 863.891C531.786 862.172 524.617 873.916 522.108 880.003Z" fill="#FDB002"/>
<path d="M726.726 550.663C722.999 577.159 726.225 734.341 726.726 742.935C727.226 751.528 727.659 768.26 736.046 770.504C751.627 774.674 761.121 752.26 776.91 736.49C799.493 713.933 837.447 700.402 852.903 695.314C884.447 684.931 983.024 647.093 993.777 640.891C1001.54 636.416 1007.56 631.582 1016 618.692C1022.1 609.383 1027.67 581.813 1030.34 559.615C1033.01 537.416 1035 496.535 1035 490.154C1035 486.627 1034.28 480.486 1029.62 471.177C1025.9 463.73 1021.38 459.003 1014.93 454.349C1002.33 444.841 987.109 433.582 982.665 430.718C978.222 427.853 973.345 425.588 965.818 426.063C907.15 429.763 787.162 443.106 765.081 464.016C743 484.926 730.452 524.168 726.726 550.663Z" fill="#FDB002"/>
<path d="M944.531 745.02C942.236 786.84 937.003 807.678 928.041 821.284C919.08 834.889 917.144 854.081 925.174 876.423C935.211 904.351 943.647 912.586 949.907 912.586C956.36 912.586 959.586 900.412 962.453 888.597C965.249 877.077 991.13 761.848 993.998 750.748C996.865 739.649 1006.54 698.474 1005.11 674.842C1003.96 655.938 975.96 666.249 971.415 671.978C960.064 682.958 946.825 703.2 944.531 745.02Z" fill="#FDB002"/>
<path d="M906.892 880.003L921.948 917.956C926.918 930.127 933.822 956.904 930.192 968.082C925.891 981.33 893.874 1005.26 855.274 1027.52C819.787 1047.98 772.829 1056.76 750.605 1059.74C731.606 1062.29 724.437 1046.14 724.437 1000.66C724.437 900.412 723.003 855.188 728.739 848.137C738.059 836.679 755.981 839.186 782.149 862.459C808.316 885.732 839.637 881.477 855.274 877.139C868.179 873.558 877.857 866.039 888.611 863.891C897.214 862.172 904.383 873.916 906.892 880.003Z" fill="#FDB002"/>
<path d="M702.274 550.663C706.001 577.159 702.775 734.341 702.274 742.935C701.774 751.528 701.341 768.26 692.954 770.504C677.373 774.674 667.879 752.26 652.09 736.49C629.507 713.933 591.553 700.402 576.097 695.314C544.552 684.931 445.976 647.093 435.223 640.891C427.462 636.416 421.436 631.582 412.998 618.692C406.905 609.383 401.327 581.813 398.66 559.615C395.993 537.416 394 496.535 394 490.154C394 486.627 394.717 480.486 399.377 471.177C403.105 463.73 407.621 459.003 414.074 454.349C426.672 444.841 441.891 433.582 446.335 430.718C450.778 427.853 455.655 425.588 463.182 426.063C521.85 429.763 641.838 443.106 663.919 464.016C686 484.926 698.548 524.168 702.274 550.663Z" stroke="#FDB002" stroke-width="7"/>
<path d="M484.469 745.02C486.764 786.84 491.997 807.678 500.959 821.284C509.92 834.889 511.856 854.081 503.826 876.423C493.789 904.351 485.353 912.586 479.093 912.586C472.64 912.586 469.414 900.412 466.547 888.597C463.751 877.077 437.87 761.848 435.002 750.748C432.135 739.649 422.456 698.474 423.89 674.842C425.037 655.938 453.04 666.249 457.585 671.978C468.936 682.958 482.175 703.2 484.469 745.02Z" stroke="#FDB002" stroke-width="7"/>
<path d="M522.108 880.003L507.052 917.956C502.082 930.127 495.178 956.904 498.808 968.082C503.109 981.33 535.126 1005.26 573.726 1027.52C609.213 1047.98 656.171 1056.76 678.395 1059.74C697.394 1062.29 704.563 1046.14 704.563 1000.66C704.563 900.412 705.997 855.188 700.261 848.137C690.941 836.679 673.019 839.186 646.851 862.459C620.684 885.732 589.363 881.477 573.726 877.139C560.821 873.558 551.143 866.039 540.389 863.891C531.786 862.172 524.617 873.916 522.108 880.003Z" stroke="#FDB002" stroke-width="7"/>
<path d="M726.726 550.663C722.999 577.159 726.225 734.341 726.726 742.935C727.226 751.528 727.659 768.26 736.046 770.504C751.627 774.674 761.121 752.26 776.91 736.49C799.493 713.933 837.447 700.402 852.903 695.314C884.447 684.931 983.024 647.093 993.777 640.891C1001.54 636.416 1007.56 631.582 1016 618.692C1022.1 609.383 1027.67 581.813 1030.34 559.615C1033.01 537.416 1035 496.535 1035 490.154C1035 486.627 1034.28 480.486 1029.62 471.177C1025.9 463.73 1021.38 459.003 1014.93 454.349C1002.33 444.841 987.109 433.582 982.665 430.718C978.222 427.853 973.345 425.588 965.818 426.063C907.15 429.763 787.162 443.106 765.081 464.016C743 484.926 730.452 524.168 726.726 550.663Z" stroke="#FDB002" stroke-width="7"/>
<path d="M944.531 745.02C942.236 786.84 937.003 807.678 928.041 821.284C919.08 834.889 917.144 854.081 925.174 876.423C935.211 904.351 943.647 912.586 949.907 912.586C956.36 912.586 959.586 900.412 962.453 888.597C965.249 877.077 991.13 761.848 993.998 750.748C996.865 739.649 1006.54 698.474 1005.11 674.842C1003.96 655.938 975.96 666.249 971.415 671.978C960.064 682.958 946.825 703.2 944.531 745.02Z" stroke="#FDB002" stroke-width="7"/>
<path d="M906.892 880.003L921.948 917.956C926.918 930.127 933.822 956.904 930.192 968.082C925.891 981.33 893.874 1005.26 855.274 1027.52C819.787 1047.98 772.829 1056.76 750.605 1059.74C731.606 1062.29 724.437 1046.14 724.437 1000.66C724.437 900.412 723.003 855.188 728.739 848.137C738.059 836.679 755.981 839.186 782.149 862.459C808.316 885.732 839.637 881.477 855.274 877.139C868.179 873.558 877.857 866.039 888.611 863.891C897.214 862.172 904.383 873.916 906.892 880.003Z" stroke="#FDB002" stroke-width="7"/>
</svg>
