<svg width="1430" height="1430" viewBox="0 0 1430 1430" fill="none" xmlns="http://www.w3.org/2000/svg">
<path d="M696.071 450.551C701.731 490.838 696.831 729.834 696.071 742.9C695.311 755.966 694.653 781.407 681.916 784.82C658.252 791.161 643.832 757.08 619.853 733.101C585.555 698.803 527.911 678.229 504.438 670.494C456.53 654.706 306.816 597.173 290.484 587.743C278.697 580.938 269.545 573.588 256.731 553.99C247.476 539.835 239.004 497.915 234.954 464.162C230.904 430.409 227.877 368.249 227.877 358.546C227.877 353.184 228.965 343.847 236.043 329.692C241.705 318.368 248.564 311.182 258.364 304.104C277.498 289.647 300.612 272.529 307.361 268.173C314.109 263.818 321.515 260.374 332.948 261.096C422.05 266.722 604.283 287.01 637.819 318.804C671.355 350.597 690.411 410.265 696.071 450.551Z" fill="#FDB002" stroke="#FDB002" stroke-width="7"/>
<path d="M365.278 746.071C368.762 809.658 376.711 841.343 390.321 862.031C403.931 882.718 406.871 911.899 394.676 945.87C379.433 988.334 366.62 1000.86 357.112 1000.86C347.312 1000.86 342.413 982.346 338.057 964.38C333.811 946.864 294.504 771.658 290.149 754.782C285.794 737.905 271.095 675.297 273.272 639.366C275.015 610.621 317.544 626.3 324.447 635.011C341.687 651.706 361.794 682.484 365.278 746.071Z" fill="#FDB002" stroke="#FDB002" stroke-width="7"/>
<path d="M422.441 951.314L399.576 1009.02C392.028 1027.53 381.542 1068.24 387.054 1085.24C393.587 1105.38 442.212 1141.76 500.837 1175.61C554.733 1206.73 626.051 1220.07 659.805 1224.61C688.659 1228.49 699.547 1203.92 699.547 1134.78C699.547 982.345 701.724 913.582 693.014 902.861C678.859 885.44 651.639 889.251 611.897 924.637C572.154 960.024 524.587 953.556 500.837 946.958C481.238 941.514 466.539 930.082 450.206 926.815C437.14 924.202 426.252 942.059 422.441 951.314Z" fill="#FDB002" stroke="#FDB002" stroke-width="7"/>
<path d="M733.207 450.551C727.547 490.838 732.447 729.834 733.207 742.9C733.967 755.966 734.625 781.407 747.362 784.82C771.025 791.161 785.446 757.08 809.425 733.101C843.722 698.803 901.366 678.229 924.84 670.494C972.748 654.706 1122.46 597.173 1138.79 587.743C1150.58 580.938 1159.73 573.588 1172.55 553.99C1181.8 539.835 1190.27 497.915 1194.32 464.162C1198.37 430.409 1201.4 368.249 1201.4 358.546C1201.4 353.184 1200.31 343.847 1193.24 329.692C1187.57 318.368 1180.71 311.182 1170.91 304.104C1151.78 289.647 1128.67 272.529 1121.92 268.173C1115.17 263.818 1107.76 260.374 1096.33 261.096C1007.23 266.722 824.995 287.01 791.459 318.804C757.923 350.597 738.867 410.265 733.207 450.551Z" fill="#FDB002" stroke="#FDB002" stroke-width="7"/>
<path d="M1064 746.071C1060.52 809.658 1052.57 841.343 1038.96 862.031C1025.35 882.718 1022.41 911.899 1034.6 945.87C1049.85 988.334 1062.66 1000.86 1072.17 1000.86C1081.97 1000.86 1086.87 982.346 1091.22 964.38C1095.47 946.864 1134.77 771.658 1139.13 754.782C1143.48 737.905 1158.18 675.297 1156.01 639.366C1154.26 610.621 1111.73 626.3 1104.83 635.011C1087.59 651.706 1067.48 682.484 1064 746.071Z" fill="#FDB002" stroke="#FDB002" stroke-width="7"/>
<path d="M1006.84 951.314L1029.7 1009.02C1037.25 1027.53 1047.74 1068.24 1042.22 1085.24C1035.69 1105.38 987.065 1141.76 928.441 1175.61C874.545 1206.73 803.227 1220.07 769.473 1224.61C740.619 1228.49 729.731 1203.92 729.731 1134.78C729.731 982.345 727.553 913.582 736.264 902.861C750.419 885.44 777.639 889.251 817.381 924.637C857.123 960.024 904.691 953.556 928.441 946.958C948.04 941.514 962.739 930.082 979.072 926.815C992.137 924.202 1003.03 942.059 1006.84 951.314Z" fill="#FDB002" stroke="#FDB002" stroke-width="7"/>
</svg>
